<?xml version="1.0" encoding="UTF-8" ?>
<svg version="1.1" width="64" height="64" xmlns="http://www.w3.org/2000/svg" shape-rendering="crispEdges">
<rect x="17" y="12" width="1" height="1" fill="#000000" opacity="0.086275" />
<rect x="18" y="12" width="1" height="1" fill="#000000" />
<rect x="19" y="12" width="1" height="1" fill="#000000" />
<rect x="20" y="12" width="1" height="1" fill="#000000" />
<rect x="21" y="12" width="1" height="1" fill="#000000" />
<rect x="22" y="12" width="1" height="1" fill="#000000" />
<rect x="23" y="12" width="1" height="1" fill="#000000" />
<rect x="24" y="12" width="1" height="1" fill="#000000" />
<rect x="25" y="12" width="1" height="1" fill="#000000" />
<rect x="26" y="12" width="1" height="1" fill="#000000" />
<rect x="27" y="12" width="1" height="1" fill="#000000" />
<rect x="28" y="12" width="1" height="1" fill="#000000" />
<rect x="29" y="12" width="1" height="1" fill="#000000" />
<rect x="30" y="12" width="1" height="1" fill="#000000" />
<rect x="31" y="12" width="1" height="1" fill="#000000" />
<rect x="32" y="12" width="1" height="1" fill="#000000" />
<rect x="33" y="12" width="1" height="1" fill="#000000" />
<rect x="34" y="12" width="1" height="1" fill="#000000" />
<rect x="35" y="12" width="1" height="1" fill="#000000" />
<rect x="36" y="12" width="1" height="1" fill="#000000" />
<rect x="37" y="12" width="1" height="1" fill="#000000" />
<rect x="38" y="12" width="1" height="1" fill="#000000" />
<rect x="39" y="12" width="1" height="1" fill="#000000" />
<rect x="40" y="12" width="1" height="1" fill="#000000" />
<rect x="41" y="12" width="1" height="1" fill="#000000" />
<rect x="42" y="12" width="1" height="1" fill="#000000" />
<rect x="43" y="12" width="1" height="1" fill="#000000" />
<rect x="44" y="12" width="1" height="1" fill="#000000" />
<rect x="45" y="12" width="1" height="1" fill="#000000" />
<rect x="46" y="12" width="1" height="1" fill="#000000" opacity="0.094118" />
<rect x="16" y="13" width="1" height="1" fill="#000000" opacity="0.317647" />
<rect x="17" y="13" width="1" height="1" fill="#000000" />
<rect x="18" y="13" width="1" height="1" fill="#000000" />
<rect x="19" y="13" width="1" height="1" fill="#000000" />
<rect x="20" y="13" width="1" height="1" fill="#000000" />
<rect x="21" y="13" width="1" height="1" fill="#000000" />
<rect x="22" y="13" width="1" height="1" fill="#000000" />
<rect x="23" y="13" width="1" height="1" fill="#000000" />
<rect x="24" y="13" width="1" height="1" fill="#000000" />
<rect x="25" y="13" width="1" height="1" fill="#000000" />
<rect x="26" y="13" width="1" height="1" fill="#000000" />
<rect x="27" y="13" width="1" height="1" fill="#000000" />
<rect x="28" y="13" width="1" height="1" fill="#000000" />
<rect x="29" y="13" width="1" height="1" fill="#000000" />
<rect x="30" y="13" width="1" height="1" fill="#000000" />
<rect x="31" y="13" width="1" height="1" fill="#000000" />
<rect x="32" y="13" width="1" height="1" fill="#000000" />
<rect x="33" y="13" width="1" height="1" fill="#000000" />
<rect x="34" y="13" width="1" height="1" fill="#000000" />
<rect x="35" y="13" width="1" height="1" fill="#000000" />
<rect x="36" y="13" width="1" height="1" fill="#000000" />
<rect x="37" y="13" width="1" height="1" fill="#000000" />
<rect x="38" y="13" width="1" height="1" fill="#000000" />
<rect x="39" y="13" width="1" height="1" fill="#000000" />
<rect x="40" y="13" width="1" height="1" fill="#000000" />
<rect x="41" y="13" width="1" height="1" fill="#000000" />
<rect x="42" y="13" width="1" height="1" fill="#000000" />
<rect x="43" y="13" width="1" height="1" fill="#000000" />
<rect x="44" y="13" width="1" height="1" fill="#000000" />
<rect x="45" y="13" width="1" height="1" fill="#000000" />
<rect x="46" y="13" width="1" height="1" fill="#000000" />
<rect x="47" y="13" width="1" height="1" fill="#000000" opacity="0.466667" />
<rect x="16" y="14" width="1" height="1" fill="#000000" opacity="0.168627" />
<rect x="17" y="14" width="1" height="1" fill="#000000" />
<rect x="18" y="14" width="1" height="1" fill="#000000" />
<rect x="19" y="14" width="1" height="1" fill="#000000" />
<rect x="44" y="14" width="1" height="1" fill="#000000" />
<rect x="45" y="14" width="1" height="1" fill="#000000" />
<rect x="46" y="14" width="1" height="1" fill="#000000" />
<rect x="47" y="14" width="1" height="1" fill="#000000" opacity="0.427451" />
<rect x="16" y="15" width="1" height="1" fill="#000000" opacity="0.168627" />
<rect x="17" y="15" width="1" height="1" fill="#000000" />
<rect x="46" y="15" width="1" height="1" fill="#000000" />
<rect x="47" y="15" width="1" height="1" fill="#000000" opacity="0.427451" />
<rect x="16" y="16" width="1" height="1" fill="#000000" opacity="0.168627" />
<rect x="17" y="16" width="1" height="1" fill="#000000" />
<rect x="20" y="16" width="1" height="1" fill="#000000" />
<rect x="21" y="16" width="1" height="1" fill="#000000" />
<rect x="24" y="16" width="1" height="1" fill="#000000" />
<rect x="25" y="16" width="1" height="1" fill="#000000" />
<rect x="26" y="16" width="1" height="1" fill="#000000" />
<rect x="27" y="16" width="1" height="1" fill="#000000" />
<rect x="28" y="16" width="1" height="1" fill="#000000" />
<rect x="29" y="16" width="1" height="1" fill="#000000" />
<rect x="30" y="16" width="1" height="1" fill="#000000" />
<rect x="31" y="16" width="1" height="1" fill="#000000" />
<rect x="32" y="16" width="1" height="1" fill="#000000" />
<rect x="33" y="16" width="1" height="1" fill="#000000" />
<rect x="34" y="16" width="1" height="1" fill="#000000" />
<rect x="35" y="16" width="1" height="1" fill="#000000" />
<rect x="36" y="16" width="1" height="1" fill="#000000" />
<rect x="37" y="16" width="1" height="1" fill="#000000" />
<rect x="38" y="16" width="1" height="1" fill="#000000" />
<rect x="39" y="16" width="1" height="1" fill="#000000" />
<rect x="42" y="16" width="1" height="1" fill="#000000" />
<rect x="43" y="16" width="1" height="1" fill="#000000" />
<rect x="46" y="16" width="1" height="1" fill="#000000" />
<rect x="47" y="16" width="1" height="1" fill="#000000" opacity="0.427451" />
<rect x="16" y="17" width="1" height="1" fill="#000000" opacity="0.168627" />
<rect x="17" y="17" width="1" height="1" fill="#000000" />
<rect x="20" y="17" width="1" height="1" fill="#000000" />
<rect x="21" y="17" width="1" height="1" fill="#000000" />
<rect x="23" y="17" width="1" height="1" fill="#000000" />
<rect x="24" y="17" width="1" height="1" fill="#000000" />
<rect x="25" y="17" width="1" height="1" fill="#000000" opacity="0.576471" />
<rect x="26" y="17" width="1" height="1" fill="#000000" opacity="0.576471" />
<rect x="27" y="17" width="1" height="1" fill="#000000" opacity="0.576471" />
<rect x="28" y="17" width="1" height="1" fill="#000000" opacity="0.576471" />
<rect x="29" y="17" width="1" height="1" fill="#000000" opacity="0.576471" />
<rect x="30" y="17" width="1" height="1" fill="#000000" opacity="0.576471" />
<rect x="31" y="17" width="1" height="1" fill="#000000" opacity="0.576471" />
<rect x="32" y="17" width="1" height="1" fill="#000000" opacity="0.576471" />
<rect x="33" y="17" width="1" height="1" fill="#000000" opacity="0.576471" />
<rect x="34" y="17" width="1" height="1" fill="#000000" opacity="0.576471" />
<rect x="35" y="17" width="1" height="1" fill="#000000" opacity="0.576471" />
<rect x="36" y="17" width="1" height="1" fill="#000000" opacity="0.576471" />
<rect x="37" y="17" width="1" height="1" fill="#000000" opacity="0.576471" />
<rect x="38" y="17" width="1" height="1" fill="#000000" opacity="0.576471" />
<rect x="39" y="17" width="1" height="1" fill="#000000" />
<rect x="40" y="17" width="1" height="1" fill="#000000" />
<rect x="42" y="17" width="1" height="1" fill="#000000" />
<rect x="43" y="17" width="1" height="1" fill="#000000" />
<rect x="46" y="17" width="1" height="1" fill="#000000" />
<rect x="47" y="17" width="1" height="1" fill="#000000" opacity="0.427451" />
<rect x="16" y="18" width="1" height="1" fill="#000000" opacity="0.168627" />
<rect x="17" y="18" width="1" height="1" fill="#000000" />
<rect x="23" y="18" width="1" height="1" fill="#000000" />
<rect x="24" y="18" width="1" height="1" fill="#000000" />
<rect x="25" y="18" width="1" height="1" fill="#000000" opacity="0.576471" />
<rect x="39" y="18" width="1" height="1" fill="#000000" />
<rect x="40" y="18" width="1" height="1" fill="#000000" />
<rect x="46" y="18" width="1" height="1" fill="#000000" />
<rect x="47" y="18" width="1" height="1" fill="#000000" opacity="0.427451" />
<rect x="16" y="19" width="1" height="1" fill="#000000" opacity="0.168627" />
<rect x="17" y="19" width="1" height="1" fill="#000000" />
<rect x="21" y="19" width="1" height="1" fill="#000000" />
<rect x="22" y="19" width="1" height="1" fill="#000000" />
<rect x="23" y="19" width="1" height="1" fill="#000000" />
<rect x="24" y="19" width="1" height="1" fill="#000000" opacity="0.576471" />
<rect x="40" y="19" width="1" height="1" fill="#000000" />
<rect x="41" y="19" width="1" height="1" fill="#000000" />
<rect x="42" y="19" width="1" height="1" fill="#000000" />
<rect x="46" y="19" width="1" height="1" fill="#000000" />
<rect x="47" y="19" width="1" height="1" fill="#000000" opacity="0.427451" />
<rect x="16" y="20" width="1" height="1" fill="#000000" opacity="0.168627" />
<rect x="17" y="20" width="1" height="1" fill="#000000" />
<rect x="20" y="20" width="1" height="1" fill="#000000" />
<rect x="21" y="20" width="1" height="1" fill="#000000" />
<rect x="22" y="20" width="1" height="1" fill="#000000" />
<rect x="23" y="20" width="1" height="1" fill="#000000" opacity="0.576471" />
<rect x="41" y="20" width="1" height="1" fill="#000000" />
<rect x="42" y="20" width="1" height="1" fill="#000000" />
<rect x="43" y="20" width="1" height="1" fill="#000000" />
<rect x="46" y="20" width="1" height="1" fill="#000000" />
<rect x="47" y="20" width="1" height="1" fill="#000000" opacity="0.427451" />
<rect x="16" y="21" width="1" height="1" fill="#000000" opacity="0.168627" />
<rect x="17" y="21" width="1" height="1" fill="#000000" />
<rect x="20" y="21" width="1" height="1" fill="#000000" />
<rect x="21" y="21" width="1" height="1" fill="#000000" opacity="0.576471" />
<rect x="22" y="21" width="1" height="1" fill="#000000" opacity="0.576471" />
<rect x="42" y="21" width="1" height="1" fill="#000000" opacity="0.576471" />
<rect x="43" y="21" width="1" height="1" fill="#000000" />
<rect x="46" y="21" width="1" height="1" fill="#000000" />
<rect x="47" y="21" width="1" height="1" fill="#000000" opacity="0.427451" />
<rect x="16" y="22" width="1" height="1" fill="#000000" opacity="0.168627" />
<rect x="17" y="22" width="1" height="1" fill="#000000" />
<rect x="20" y="22" width="1" height="1" fill="#000000" />
<rect x="42" y="22" width="1" height="1" fill="#000000" opacity="0.576471" />
<rect x="43" y="22" width="1" height="1" fill="#000000" />
<rect x="46" y="22" width="1" height="1" fill="#000000" />
<rect x="47" y="22" width="1" height="1" fill="#000000" opacity="0.427451" />
<rect x="16" y="23" width="1" height="1" fill="#000000" opacity="0.168627" />
<rect x="17" y="23" width="1" height="1" fill="#000000" />
<rect x="20" y="23" width="1" height="1" fill="#000000" />
<rect x="42" y="23" width="1" height="1" fill="#000000" opacity="0.576471" />
<rect x="43" y="23" width="1" height="1" fill="#000000" />
<rect x="46" y="23" width="1" height="1" fill="#000000" />
<rect x="47" y="23" width="1" height="1" fill="#000000" opacity="0.427451" />
<rect x="16" y="24" width="1" height="1" fill="#000000" opacity="0.168627" />
<rect x="17" y="24" width="1" height="1" fill="#000000" />
<rect x="20" y="24" width="1" height="1" fill="#000000" />
<rect x="42" y="24" width="1" height="1" fill="#000000" opacity="0.576471" />
<rect x="43" y="24" width="1" height="1" fill="#000000" />
<rect x="46" y="24" width="1" height="1" fill="#000000" />
<rect x="47" y="24" width="1" height="1" fill="#000000" opacity="0.427451" />
<rect x="16" y="25" width="1" height="1" fill="#000000" opacity="0.168627" />
<rect x="17" y="25" width="1" height="1" fill="#000000" />
<rect x="20" y="25" width="1" height="1" fill="#000000" />
<rect x="27" y="25" width="1" height="1" fill="#000000" />
<rect x="28" y="25" width="1" height="1" fill="#000000" />
<rect x="29" y="25" width="1" height="1" fill="#000000" />
<rect x="30" y="25" width="1" height="1" fill="#000000" />
<rect x="31" y="25" width="1" height="1" fill="#000000" />
<rect x="32" y="25" width="1" height="1" fill="#000000" />
<rect x="33" y="25" width="1" height="1" fill="#000000" />
<rect x="34" y="25" width="1" height="1" fill="#000000" />
<rect x="35" y="25" width="1" height="1" fill="#000000" />
<rect x="36" y="25" width="1" height="1" fill="#000000" />
<rect x="42" y="25" width="1" height="1" fill="#000000" opacity="0.576471" />
<rect x="43" y="25" width="1" height="1" fill="#000000" />
<rect x="46" y="25" width="1" height="1" fill="#000000" />
<rect x="47" y="25" width="1" height="1" fill="#000000" opacity="0.427451" />
<rect x="16" y="26" width="1" height="1" fill="#000000" opacity="0.168627" />
<rect x="17" y="26" width="1" height="1" fill="#000000" />
<rect x="20" y="26" width="1" height="1" fill="#000000" />
<rect x="25" y="26" width="1" height="1" fill="#000000" />
<rect x="26" y="26" width="1" height="1" fill="#000000" />
<rect x="27" y="26" width="1" height="1" fill="#000000" />
<rect x="28" y="26" width="1" height="1" fill="#000000" />
<rect x="29" y="26" width="1" height="1" fill="#000000" />
<rect x="30" y="26" width="1" height="1" fill="#000000" />
<rect x="31" y="26" width="1" height="1" fill="#000000" />
<rect x="32" y="26" width="1" height="1" fill="#000000" />
<rect x="33" y="26" width="1" height="1" fill="#000000" />
<rect x="34" y="26" width="1" height="1" fill="#000000" />
<rect x="35" y="26" width="1" height="1" fill="#000000" />
<rect x="36" y="26" width="1" height="1" fill="#000000" />
<rect x="42" y="26" width="1" height="1" fill="#000000" opacity="0.576471" />
<rect x="43" y="26" width="1" height="1" fill="#000000" />
<rect x="46" y="26" width="1" height="1" fill="#000000" />
<rect x="47" y="26" width="1" height="1" fill="#000000" opacity="0.427451" />
<rect x="16" y="27" width="1" height="1" fill="#000000" opacity="0.168627" />
<rect x="17" y="27" width="1" height="1" fill="#000000" />
<rect x="20" y="27" width="1" height="1" fill="#000000" />
<rect x="25" y="27" width="1" height="1" fill="#000000" />
<rect x="26" y="27" width="1" height="1" fill="#000000" />
<rect x="27" y="27" width="1" height="1" fill="#000000" />
<rect x="28" y="27" width="1" height="1" fill="#000000" />
<rect x="29" y="27" width="1" height="1" fill="#000000" />
<rect x="30" y="27" width="1" height="1" fill="#000000" />
<rect x="31" y="27" width="1" height="1" fill="#000000" />
<rect x="32" y="27" width="1" height="1" fill="#000000" />
<rect x="33" y="27" width="1" height="1" fill="#000000" />
<rect x="34" y="27" width="1" height="1" fill="#000000" />
<rect x="35" y="27" width="1" height="1" fill="#000000" />
<rect x="36" y="27" width="1" height="1" fill="#000000" />
<rect x="37" y="27" width="1" height="1" fill="#000000" />
<rect x="38" y="27" width="1" height="1" fill="#000000" opacity="0.266667" />
<rect x="39" y="27" width="1" height="1" fill="#000000" opacity="0.266667" />
<rect x="42" y="27" width="1" height="1" fill="#000000" opacity="0.576471" />
<rect x="43" y="27" width="1" height="1" fill="#000000" />
<rect x="46" y="27" width="1" height="1" fill="#000000" />
<rect x="47" y="27" width="1" height="1" fill="#000000" opacity="0.427451" />
<rect x="16" y="28" width="1" height="1" fill="#000000" opacity="0.168627" />
<rect x="17" y="28" width="1" height="1" fill="#000000" />
<rect x="20" y="28" width="1" height="1" fill="#000000" />
<rect x="24" y="28" width="1" height="1" fill="#000000" />
<rect x="25" y="28" width="1" height="1" fill="#000000" />
<rect x="26" y="28" width="1" height="1" fill="#000000" />
<rect x="27" y="28" width="1" height="1" fill="#000000" />
<rect x="28" y="28" width="1" height="1" fill="#000000" />
<rect x="29" y="28" width="1" height="1" fill="#000000" opacity="0.266667" />
<rect x="30" y="28" width="1" height="1" fill="#000000" opacity="0.266667" />
<rect x="31" y="28" width="1" height="1" fill="#000000" opacity="0.266667" />
<rect x="32" y="28" width="1" height="1" fill="#000000" opacity="0.462745" />
<rect x="33" y="28" width="1" height="1" fill="#000000" opacity="0.462745" />
<rect x="34" y="28" width="1" height="1" fill="#000000" opacity="0.462745" />
<rect x="35" y="28" width="1" height="1" fill="#000000" />
<rect x="36" y="28" width="1" height="1" fill="#000000" />
<rect x="37" y="28" width="1" height="1" fill="#000000" />
<rect x="38" y="28" width="1" height="1" fill="#000000" opacity="0.266667" />
<rect x="39" y="28" width="1" height="1" fill="#000000" opacity="0.266667" />
<rect x="42" y="28" width="1" height="1" fill="#000000" opacity="0.576471" />
<rect x="43" y="28" width="1" height="1" fill="#000000" />
<rect x="46" y="28" width="1" height="1" fill="#000000" />
<rect x="47" y="28" width="1" height="1" fill="#000000" opacity="0.427451" />
<rect x="16" y="29" width="1" height="1" fill="#000000" opacity="0.168627" />
<rect x="17" y="29" width="1" height="1" fill="#000000" />
<rect x="20" y="29" width="1" height="1" fill="#000000" />
<rect x="24" y="29" width="1" height="1" fill="#000000" />
<rect x="25" y="29" width="1" height="1" fill="#000000" />
<rect x="26" y="29" width="1" height="1" fill="#000000" />
<rect x="27" y="29" width="1" height="1" fill="#000000" />
<rect x="28" y="29" width="1" height="1" fill="#000000" />
<rect x="29" y="29" width="1" height="1" fill="#000000" opacity="0.266667" />
<rect x="30" y="29" width="1" height="1" fill="#000000" opacity="0.266667" />
<rect x="31" y="29" width="1" height="1" fill="#000000" opacity="0.266667" />
<rect x="32" y="29" width="1" height="1" fill="#000000" opacity="0.462745" />
<rect x="33" y="29" width="1" height="1" fill="#000000" opacity="0.462745" />
<rect x="34" y="29" width="1" height="1" fill="#000000" opacity="0.462745" />
<rect x="35" y="29" width="1" height="1" fill="#000000" />
<rect x="36" y="29" width="1" height="1" fill="#000000" />
<rect x="37" y="29" width="1" height="1" fill="#000000" />
<rect x="38" y="29" width="1" height="1" fill="#000000" opacity="0.266667" />
<rect x="39" y="29" width="1" height="1" fill="#000000" opacity="0.266667" />
<rect x="42" y="29" width="1" height="1" fill="#000000" opacity="0.576471" />
<rect x="43" y="29" width="1" height="1" fill="#000000" />
<rect x="46" y="29" width="1" height="1" fill="#000000" />
<rect x="47" y="29" width="1" height="1" fill="#000000" opacity="0.427451" />
<rect x="16" y="30" width="1" height="1" fill="#000000" opacity="0.168627" />
<rect x="17" y="30" width="1" height="1" fill="#000000" />
<rect x="20" y="30" width="1" height="1" fill="#000000" />
<rect x="24" y="30" width="1" height="1" fill="#000000" />
<rect x="25" y="30" width="1" height="1" fill="#000000" />
<rect x="26" y="30" width="1" height="1" fill="#000000" />
<rect x="27" y="30" width="1" height="1" fill="#000000" opacity="0.266667" />
<rect x="28" y="30" width="1" height="1" fill="#000000" opacity="0.266667" />
<rect x="29" y="30" width="1" height="1" fill="#000000" opacity="0.266667" />
<rect x="34" y="30" width="1" height="1" fill="#000000" opacity="0.462745" />
<rect x="35" y="30" width="1" height="1" fill="#000000" />
<rect x="36" y="30" width="1" height="1" fill="#000000" />
<rect x="37" y="30" width="1" height="1" fill="#000000" />
<rect x="38" y="30" width="1" height="1" fill="#000000" opacity="0.266667" />
<rect x="39" y="30" width="1" height="1" fill="#000000" opacity="0.266667" />
<rect x="42" y="30" width="1" height="1" fill="#000000" opacity="0.576471" />
<rect x="43" y="30" width="1" height="1" fill="#000000" />
<rect x="46" y="30" width="1" height="1" fill="#000000" />
<rect x="47" y="30" width="1" height="1" fill="#000000" opacity="0.427451" />
<rect x="16" y="31" width="1" height="1" fill="#000000" opacity="0.168627" />
<rect x="17" y="31" width="1" height="1" fill="#000000" />
<rect x="20" y="31" width="1" height="1" fill="#000000" />
<rect x="24" y="31" width="1" height="1" fill="#000000" />
<rect x="25" y="31" width="1" height="1" fill="#000000" />
<rect x="26" y="31" width="1" height="1" fill="#000000" />
<rect x="27" y="31" width="1" height="1" fill="#000000" opacity="0.266667" />
<rect x="28" y="31" width="1" height="1" fill="#000000" opacity="0.266667" />
<rect x="29" y="31" width="1" height="1" fill="#000000" opacity="0.266667" />
<rect x="34" y="31" width="1" height="1" fill="#000000" opacity="0.462745" />
<rect x="35" y="31" width="1" height="1" fill="#000000" />
<rect x="36" y="31" width="1" height="1" fill="#000000" />
<rect x="37" y="31" width="1" height="1" fill="#000000" />
<rect x="38" y="31" width="1" height="1" fill="#000000" opacity="0.266667" />
<rect x="39" y="31" width="1" height="1" fill="#000000" opacity="0.266667" />
<rect x="42" y="31" width="1" height="1" fill="#000000" opacity="0.576471" />
<rect x="43" y="31" width="1" height="1" fill="#000000" />
<rect x="46" y="31" width="1" height="1" fill="#000000" />
<rect x="47" y="31" width="1" height="1" fill="#000000" opacity="0.427451" />
<rect x="16" y="32" width="1" height="1" fill="#000000" opacity="0.168627" />
<rect x="17" y="32" width="1" height="1" fill="#000000" />
<rect x="20" y="32" width="1" height="1" fill="#000000" />
<rect x="34" y="32" width="1" height="1" fill="#000000" opacity="0.462745" />
<rect x="35" y="32" width="1" height="1" fill="#000000" />
<rect x="36" y="32" width="1" height="1" fill="#000000" />
<rect x="37" y="32" width="1" height="1" fill="#000000" />
<rect x="38" y="32" width="1" height="1" fill="#000000" opacity="0.266667" />
<rect x="39" y="32" width="1" height="1" fill="#000000" opacity="0.266667" />
<rect x="42" y="32" width="1" height="1" fill="#000000" opacity="0.576471" />
<rect x="43" y="32" width="1" height="1" fill="#000000" />
<rect x="46" y="32" width="1" height="1" fill="#000000" />
<rect x="47" y="32" width="1" height="1" fill="#000000" opacity="0.427451" />
<rect x="16" y="33" width="1" height="1" fill="#000000" opacity="0.168627" />
<rect x="17" y="33" width="1" height="1" fill="#000000" />
<rect x="20" y="33" width="1" height="1" fill="#000000" />
<rect x="34" y="33" width="1" height="1" fill="#000000" opacity="0.462745" />
<rect x="35" y="33" width="1" height="1" fill="#000000" />
<rect x="36" y="33" width="1" height="1" fill="#000000" />
<rect x="37" y="33" width="1" height="1" fill="#000000" />
<rect x="38" y="33" width="1" height="1" fill="#000000" opacity="0.266667" />
<rect x="39" y="33" width="1" height="1" fill="#000000" opacity="0.266667" />
<rect x="42" y="33" width="1" height="1" fill="#000000" opacity="0.576471" />
<rect x="43" y="33" width="1" height="1" fill="#000000" />
<rect x="46" y="33" width="1" height="1" fill="#000000" />
<rect x="47" y="33" width="1" height="1" fill="#000000" opacity="0.427451" />
<rect x="16" y="34" width="1" height="1" fill="#000000" opacity="0.168627" />
<rect x="17" y="34" width="1" height="1" fill="#000000" />
<rect x="20" y="34" width="1" height="1" fill="#000000" />
<rect x="34" y="34" width="1" height="1" fill="#000000" />
<rect x="35" y="34" width="1" height="1" fill="#000000" />
<rect x="36" y="34" width="1" height="1" fill="#000000" />
<rect x="37" y="34" width="1" height="1" fill="#000000" />
<rect x="38" y="34" width="1" height="1" fill="#000000" opacity="0.266667" />
<rect x="39" y="34" width="1" height="1" fill="#000000" opacity="0.266667" />
<rect x="42" y="34" width="1" height="1" fill="#000000" opacity="0.576471" />
<rect x="43" y="34" width="1" height="1" fill="#000000" />
<rect x="46" y="34" width="1" height="1" fill="#000000" />
<rect x="47" y="34" width="1" height="1" fill="#000000" opacity="0.427451" />
<rect x="16" y="35" width="1" height="1" fill="#000000" opacity="0.168627" />
<rect x="17" y="35" width="1" height="1" fill="#000000" />
<rect x="20" y="35" width="1" height="1" fill="#000000" />
<rect x="30" y="35" width="1" height="1" fill="#000000" />
<rect x="31" y="35" width="1" height="1" fill="#000000" />
<rect x="32" y="35" width="1" height="1" fill="#000000" />
<rect x="33" y="35" width="1" height="1" fill="#000000" />
<rect x="34" y="35" width="1" height="1" fill="#000000" />
<rect x="35" y="35" width="1" height="1" fill="#000000" />
<rect x="36" y="35" width="1" height="1" fill="#000000" />
<rect x="37" y="35" width="1" height="1" fill="#000000" opacity="0.266667" />
<rect x="38" y="35" width="1" height="1" fill="#000000" opacity="0.266667" />
<rect x="39" y="35" width="1" height="1" fill="#000000" opacity="0.266667" />
<rect x="42" y="35" width="1" height="1" fill="#000000" opacity="0.576471" />
<rect x="43" y="35" width="1" height="1" fill="#000000" />
<rect x="46" y="35" width="1" height="1" fill="#000000" />
<rect x="47" y="35" width="1" height="1" fill="#000000" opacity="0.427451" />
<rect x="16" y="36" width="1" height="1" fill="#000000" opacity="0.168627" />
<rect x="17" y="36" width="1" height="1" fill="#000000" />
<rect x="20" y="36" width="1" height="1" fill="#000000" />
<rect x="30" y="36" width="1" height="1" fill="#000000" />
<rect x="31" y="36" width="1" height="1" fill="#000000" />
<rect x="32" y="36" width="1" height="1" fill="#000000" />
<rect x="33" y="36" width="1" height="1" fill="#000000" />
<rect x="34" y="36" width="1" height="1" fill="#000000" />
<rect x="35" y="36" width="1" height="1" fill="#000000" />
<rect x="36" y="36" width="1" height="1" fill="#000000" />
<rect x="37" y="36" width="1" height="1" fill="#000000" opacity="0.266667" />
<rect x="38" y="36" width="1" height="1" fill="#000000" opacity="0.266667" />
<rect x="39" y="36" width="1" height="1" fill="#000000" opacity="0.266667" />
<rect x="42" y="36" width="1" height="1" fill="#000000" opacity="0.576471" />
<rect x="43" y="36" width="1" height="1" fill="#000000" />
<rect x="46" y="36" width="1" height="1" fill="#000000" />
<rect x="47" y="36" width="1" height="1" fill="#000000" opacity="0.427451" />
<rect x="16" y="37" width="1" height="1" fill="#000000" opacity="0.168627" />
<rect x="17" y="37" width="1" height="1" fill="#000000" />
<rect x="20" y="37" width="1" height="1" fill="#000000" />
<rect x="30" y="37" width="1" height="1" fill="#000000" />
<rect x="31" y="37" width="1" height="1" fill="#000000" />
<rect x="32" y="37" width="1" height="1" fill="#000000" />
<rect x="33" y="37" width="1" height="1" fill="#000000" />
<rect x="34" y="37" width="1" height="1" fill="#000000" opacity="0.266667" />
<rect x="35" y="37" width="1" height="1" fill="#000000" opacity="0.266667" />
<rect x="36" y="37" width="1" height="1" fill="#000000" opacity="0.266667" />
<rect x="37" y="37" width="1" height="1" fill="#000000" opacity="0.266667" />
<rect x="42" y="37" width="1" height="1" fill="#000000" opacity="0.576471" />
<rect x="43" y="37" width="1" height="1" fill="#000000" />
<rect x="46" y="37" width="1" height="1" fill="#000000" />
<rect x="47" y="37" width="1" height="1" fill="#000000" opacity="0.427451" />
<rect x="16" y="38" width="1" height="1" fill="#000000" opacity="0.168627" />
<rect x="17" y="38" width="1" height="1" fill="#000000" />
<rect x="20" y="38" width="1" height="1" fill="#000000" />
<rect x="30" y="38" width="1" height="1" fill="#000000" />
<rect x="31" y="38" width="1" height="1" fill="#000000" />
<rect x="32" y="38" width="1" height="1" fill="#000000" />
<rect x="33" y="38" width="1" height="1" fill="#000000" />
<rect x="34" y="38" width="1" height="1" fill="#000000" opacity="0.266667" />
<rect x="35" y="38" width="1" height="1" fill="#000000" opacity="0.266667" />
<rect x="36" y="38" width="1" height="1" fill="#000000" opacity="0.266667" />
<rect x="37" y="38" width="1" height="1" fill="#000000" opacity="0.266667" />
<rect x="42" y="38" width="1" height="1" fill="#000000" opacity="0.576471" />
<rect x="43" y="38" width="1" height="1" fill="#000000" />
<rect x="46" y="38" width="1" height="1" fill="#000000" />
<rect x="47" y="38" width="1" height="1" fill="#000000" opacity="0.427451" />
<rect x="16" y="39" width="1" height="1" fill="#000000" opacity="0.168627" />
<rect x="17" y="39" width="1" height="1" fill="#000000" />
<rect x="20" y="39" width="1" height="1" fill="#000000" />
<rect x="34" y="39" width="1" height="1" fill="#000000" opacity="0.266667" />
<rect x="42" y="39" width="1" height="1" fill="#000000" opacity="0.576471" />
<rect x="43" y="39" width="1" height="1" fill="#000000" />
<rect x="46" y="39" width="1" height="1" fill="#000000" />
<rect x="47" y="39" width="1" height="1" fill="#000000" opacity="0.427451" />
<rect x="16" y="40" width="1" height="1" fill="#000000" opacity="0.168627" />
<rect x="17" y="40" width="1" height="1" fill="#000000" />
<rect x="20" y="40" width="1" height="1" fill="#000000" />
<rect x="34" y="40" width="1" height="1" fill="#000000" opacity="0.266667" />
<rect x="42" y="40" width="1" height="1" fill="#000000" opacity="0.576471" />
<rect x="43" y="40" width="1" height="1" fill="#000000" />
<rect x="46" y="40" width="1" height="1" fill="#000000" />
<rect x="47" y="40" width="1" height="1" fill="#000000" opacity="0.427451" />
<rect x="16" y="41" width="1" height="1" fill="#000000" opacity="0.168627" />
<rect x="17" y="41" width="1" height="1" fill="#000000" />
<rect x="20" y="41" width="1" height="1" fill="#000000" />
<rect x="30" y="41" width="1" height="1" fill="#000000" />
<rect x="31" y="41" width="1" height="1" fill="#000000" />
<rect x="32" y="41" width="1" height="1" fill="#000000" />
<rect x="33" y="41" width="1" height="1" fill="#000000" />
<rect x="34" y="41" width="1" height="1" fill="#000000" opacity="0.266667" />
<rect x="42" y="41" width="1" height="1" fill="#000000" opacity="0.576471" />
<rect x="43" y="41" width="1" height="1" fill="#000000" />
<rect x="46" y="41" width="1" height="1" fill="#000000" />
<rect x="47" y="41" width="1" height="1" fill="#000000" opacity="0.427451" />
<rect x="16" y="42" width="1" height="1" fill="#000000" opacity="0.168627" />
<rect x="17" y="42" width="1" height="1" fill="#000000" />
<rect x="20" y="42" width="1" height="1" fill="#000000" />
<rect x="30" y="42" width="1" height="1" fill="#000000" />
<rect x="31" y="42" width="1" height="1" fill="#000000" />
<rect x="32" y="42" width="1" height="1" fill="#000000" />
<rect x="33" y="42" width="1" height="1" fill="#000000" />
<rect x="34" y="42" width="1" height="1" fill="#000000" opacity="0.266667" />
<rect x="42" y="42" width="1" height="1" fill="#000000" opacity="0.576471" />
<rect x="43" y="42" width="1" height="1" fill="#000000" />
<rect x="46" y="42" width="1" height="1" fill="#000000" />
<rect x="47" y="42" width="1" height="1" fill="#000000" opacity="0.427451" />
<rect x="16" y="43" width="1" height="1" fill="#000000" opacity="0.168627" />
<rect x="17" y="43" width="1" height="1" fill="#000000" />
<rect x="20" y="43" width="1" height="1" fill="#000000" />
<rect x="30" y="43" width="1" height="1" fill="#000000" />
<rect x="31" y="43" width="1" height="1" fill="#000000" />
<rect x="32" y="43" width="1" height="1" fill="#000000" />
<rect x="33" y="43" width="1" height="1" fill="#000000" />
<rect x="34" y="43" width="1" height="1" fill="#000000" opacity="0.266667" />
<rect x="42" y="43" width="1" height="1" fill="#000000" opacity="0.576471" />
<rect x="43" y="43" width="1" height="1" fill="#000000" />
<rect x="46" y="43" width="1" height="1" fill="#000000" />
<rect x="47" y="43" width="1" height="1" fill="#000000" opacity="0.427451" />
<rect x="16" y="44" width="1" height="1" fill="#000000" opacity="0.168627" />
<rect x="17" y="44" width="1" height="1" fill="#000000" />
<rect x="20" y="44" width="1" height="1" fill="#000000" />
<rect x="42" y="44" width="1" height="1" fill="#000000" opacity="0.576471" />
<rect x="43" y="44" width="1" height="1" fill="#000000" />
<rect x="46" y="44" width="1" height="1" fill="#000000" />
<rect x="47" y="44" width="1" height="1" fill="#000000" opacity="0.427451" />
<rect x="16" y="45" width="1" height="1" fill="#000000" opacity="0.168627" />
<rect x="17" y="45" width="1" height="1" fill="#000000" />
<rect x="20" y="45" width="1" height="1" fill="#000000" />
<rect x="41" y="45" width="1" height="1" fill="#000000" opacity="0.576471" />
<rect x="42" y="45" width="1" height="1" fill="#000000" opacity="0.576471" />
<rect x="43" y="45" width="1" height="1" fill="#000000" />
<rect x="46" y="45" width="1" height="1" fill="#000000" />
<rect x="47" y="45" width="1" height="1" fill="#000000" opacity="0.427451" />
<rect x="16" y="46" width="1" height="1" fill="#000000" opacity="0.168627" />
<rect x="17" y="46" width="1" height="1" fill="#000000" />
<rect x="20" y="46" width="1" height="1" fill="#000000" />
<rect x="21" y="46" width="1" height="1" fill="#000000" />
<rect x="22" y="46" width="1" height="1" fill="#000000" />
<rect x="40" y="46" width="1" height="1" fill="#000000" opacity="0.576471" />
<rect x="41" y="46" width="1" height="1" fill="#000000" />
<rect x="42" y="46" width="1" height="1" fill="#000000" />
<rect x="43" y="46" width="1" height="1" fill="#000000" />
<rect x="46" y="46" width="1" height="1" fill="#000000" />
<rect x="47" y="46" width="1" height="1" fill="#000000" opacity="0.427451" />
<rect x="16" y="47" width="1" height="1" fill="#000000" opacity="0.168627" />
<rect x="17" y="47" width="1" height="1" fill="#000000" />
<rect x="21" y="47" width="1" height="1" fill="#000000" />
<rect x="22" y="47" width="1" height="1" fill="#000000" />
<rect x="23" y="47" width="1" height="1" fill="#000000" />
<rect x="39" y="47" width="1" height="1" fill="#000000" opacity="0.576471" />
<rect x="40" y="47" width="1" height="1" fill="#000000" />
<rect x="41" y="47" width="1" height="1" fill="#000000" />
<rect x="42" y="47" width="1" height="1" fill="#000000" />
<rect x="46" y="47" width="1" height="1" fill="#000000" />
<rect x="47" y="47" width="1" height="1" fill="#000000" opacity="0.427451" />
<rect x="16" y="48" width="1" height="1" fill="#000000" opacity="0.168627" />
<rect x="17" y="48" width="1" height="1" fill="#000000" />
<rect x="23" y="48" width="1" height="1" fill="#000000" />
<rect x="24" y="48" width="1" height="1" fill="#000000" />
<rect x="38" y="48" width="1" height="1" fill="#000000" opacity="0.576471" />
<rect x="39" y="48" width="1" height="1" fill="#000000" />
<rect x="40" y="48" width="1" height="1" fill="#000000" />
<rect x="46" y="48" width="1" height="1" fill="#000000" />
<rect x="47" y="48" width="1" height="1" fill="#000000" opacity="0.427451" />
<rect x="16" y="49" width="1" height="1" fill="#000000" opacity="0.168627" />
<rect x="17" y="49" width="1" height="1" fill="#000000" />
<rect x="20" y="49" width="1" height="1" fill="#000000" />
<rect x="21" y="49" width="1" height="1" fill="#000000" />
<rect x="23" y="49" width="1" height="1" fill="#000000" />
<rect x="24" y="49" width="1" height="1" fill="#000000" />
<rect x="38" y="49" width="1" height="1" fill="#000000" opacity="0.576471" />
<rect x="39" y="49" width="1" height="1" fill="#000000" />
<rect x="40" y="49" width="1" height="1" fill="#000000" />
<rect x="42" y="49" width="1" height="1" fill="#000000" />
<rect x="43" y="49" width="1" height="1" fill="#000000" />
<rect x="46" y="49" width="1" height="1" fill="#000000" />
<rect x="47" y="49" width="1" height="1" fill="#000000" opacity="0.427451" />
<rect x="16" y="50" width="1" height="1" fill="#000000" opacity="0.168627" />
<rect x="17" y="50" width="1" height="1" fill="#000000" />
<rect x="20" y="50" width="1" height="1" fill="#000000" />
<rect x="21" y="50" width="1" height="1" fill="#000000" />
<rect x="24" y="50" width="1" height="1" fill="#000000" />
<rect x="25" y="50" width="1" height="1" fill="#000000" />
<rect x="26" y="50" width="1" height="1" fill="#000000" />
<rect x="27" y="50" width="1" height="1" fill="#000000" />
<rect x="28" y="50" width="1" height="1" fill="#000000" />
<rect x="29" y="50" width="1" height="1" fill="#000000" />
<rect x="30" y="50" width="1" height="1" fill="#000000" />
<rect x="31" y="50" width="1" height="1" fill="#000000" />
<rect x="32" y="50" width="1" height="1" fill="#000000" />
<rect x="33" y="50" width="1" height="1" fill="#000000" />
<rect x="34" y="50" width="1" height="1" fill="#000000" />
<rect x="35" y="50" width="1" height="1" fill="#000000" />
<rect x="36" y="50" width="1" height="1" fill="#000000" />
<rect x="37" y="50" width="1" height="1" fill="#000000" />
<rect x="38" y="50" width="1" height="1" fill="#000000" />
<rect x="39" y="50" width="1" height="1" fill="#000000" />
<rect x="42" y="50" width="1" height="1" fill="#000000" />
<rect x="43" y="50" width="1" height="1" fill="#000000" />
<rect x="46" y="50" width="1" height="1" fill="#000000" />
<rect x="47" y="50" width="1" height="1" fill="#000000" opacity="0.427451" />
<rect x="16" y="51" width="1" height="1" fill="#000000" opacity="0.168627" />
<rect x="17" y="51" width="1" height="1" fill="#000000" />
<rect x="46" y="51" width="1" height="1" fill="#000000" />
<rect x="47" y="51" width="1" height="1" fill="#000000" opacity="0.427451" />
<rect x="16" y="52" width="1" height="1" fill="#000000" opacity="0.168627" />
<rect x="17" y="52" width="1" height="1" fill="#000000" opacity="0.996078" />
<rect x="18" y="52" width="1" height="1" fill="#000000" />
<rect x="19" y="52" width="1" height="1" fill="#000000" />
<rect x="44" y="52" width="1" height="1" fill="#000000" />
<rect x="45" y="52" width="1" height="1" fill="#000000" />
<rect x="46" y="52" width="1" height="1" fill="#000000" />
<rect x="47" y="52" width="1" height="1" fill="#000000" opacity="0.470588" />
<rect x="17" y="53" width="1" height="1" fill="#000000" opacity="0.580392" />
<rect x="18" y="53" width="1" height="1" fill="#000000" />
<rect x="19" y="53" width="1" height="1" fill="#000000" />
<rect x="20" y="53" width="1" height="1" fill="#000000" />
<rect x="21" y="53" width="1" height="1" fill="#000000" />
<rect x="22" y="53" width="1" height="1" fill="#000000" />
<rect x="23" y="53" width="1" height="1" fill="#000000" />
<rect x="24" y="53" width="1" height="1" fill="#000000" />
<rect x="25" y="53" width="1" height="1" fill="#000000" />
<rect x="26" y="53" width="1" height="1" fill="#000000" />
<rect x="27" y="53" width="1" height="1" fill="#000000" />
<rect x="28" y="53" width="1" height="1" fill="#000000" />
<rect x="29" y="53" width="1" height="1" fill="#000000" />
<rect x="30" y="53" width="1" height="1" fill="#000000" />
<rect x="31" y="53" width="1" height="1" fill="#000000" />
<rect x="32" y="53" width="1" height="1" fill="#000000" />
<rect x="33" y="53" width="1" height="1" fill="#000000" />
<rect x="34" y="53" width="1" height="1" fill="#000000" />
<rect x="35" y="53" width="1" height="1" fill="#000000" />
<rect x="36" y="53" width="1" height="1" fill="#000000" />
<rect x="37" y="53" width="1" height="1" fill="#000000" />
<rect x="38" y="53" width="1" height="1" fill="#000000" />
<rect x="39" y="53" width="1" height="1" fill="#000000" />
<rect x="40" y="53" width="1" height="1" fill="#000000" />
<rect x="41" y="53" width="1" height="1" fill="#000000" />
<rect x="42" y="53" width="1" height="1" fill="#000000" />
<rect x="43" y="53" width="1" height="1" fill="#000000" />
<rect x="44" y="53" width="1" height="1" fill="#000000" />
<rect x="45" y="53" width="1" height="1" fill="#000000" />
<rect x="46" y="53" width="1" height="1" fill="#000000" opacity="0.764706" />
<rect x="47" y="53" width="1" height="1" fill="#000000" opacity="0.015686" />
<rect x="18" y="54" width="1" height="1" fill="#000000" opacity="0.349020" />
<rect x="19" y="54" width="1" height="1" fill="#000000" opacity="0.643137" />
<rect x="20" y="54" width="1" height="1" fill="#000000" opacity="0.643137" />
<rect x="21" y="54" width="1" height="1" fill="#000000" opacity="0.733333" />
<rect x="22" y="54" width="1" height="1" fill="#000000" opacity="0.733333" />
<rect x="23" y="54" width="1" height="1" fill="#000000" opacity="0.733333" />
<rect x="24" y="54" width="1" height="1" fill="#000000" opacity="0.733333" />
<rect x="25" y="54" width="1" height="1" fill="#000000" opacity="0.733333" />
<rect x="26" y="54" width="1" height="1" fill="#000000" opacity="0.733333" />
<rect x="27" y="54" width="1" height="1" fill="#000000" opacity="0.733333" />
<rect x="28" y="54" width="1" height="1" fill="#000000" opacity="0.733333" />
<rect x="29" y="54" width="1" height="1" fill="#000000" opacity="0.733333" />
<rect x="30" y="54" width="1" height="1" fill="#000000" opacity="0.733333" />
<rect x="31" y="54" width="1" height="1" fill="#000000" opacity="0.733333" />
<rect x="32" y="54" width="1" height="1" fill="#000000" opacity="0.733333" />
<rect x="33" y="54" width="1" height="1" fill="#000000" opacity="0.733333" />
<rect x="34" y="54" width="1" height="1" fill="#000000" opacity="0.733333" />
<rect x="35" y="54" width="1" height="1" fill="#000000" opacity="0.733333" />
<rect x="36" y="54" width="1" height="1" fill="#000000" opacity="0.733333" />
<rect x="37" y="54" width="1" height="1" fill="#000000" opacity="0.733333" />
<rect x="38" y="54" width="1" height="1" fill="#000000" opacity="0.733333" />
<rect x="39" y="54" width="1" height="1" fill="#000000" opacity="0.733333" />
<rect x="40" y="54" width="1" height="1" fill="#000000" opacity="0.733333" />
<rect x="41" y="54" width="1" height="1" fill="#000000" opacity="0.733333" />
<rect x="42" y="54" width="1" height="1" fill="#000000" opacity="0.733333" />
<rect x="43" y="54" width="1" height="1" fill="#000000" opacity="0.678431" />
<rect x="44" y="54" width="1" height="1" fill="#000000" opacity="0.678431" />
<rect x="45" y="54" width="1" height="1" fill="#000000" opacity="0.435294" />
<rect x="46" y="54" width="1" height="1" fill="#000000" opacity="0.023529" />
</svg>