<?xml version="1.0" ?><svg viewBox="0 0 64 64" xmlns="http://www.w3.org/2000/svg"><g id="Resource_management"><path d="M56.8738,50.2631a5.6444,5.6444,0,0,0-5.4912,4.38H43.6042a.7235.7235,0,0,1-.7226-.7226V45.1231a22.4448,22.4448,0,0,0,4.2978-13.1949.9993.9993,0,0,0-1-1H27.6348L10.7178,49.3549a22.1659,22.1659,0,0,0,11.5388,4.8438,23.6945,23.6945,0,0,0,2.5508.14A22.1256,22.1256,0,0,0,39.3816,48.9v5.02a4.2277,4.2277,0,0,0,4.2226,4.2226h8.1a5.6365,5.6365,0,1,0,5.17-7.88Zm0,7.7744a2.1372,2.1372,0,1,1,2.1377-2.1367A2.14,2.14,0,0,1,56.8738,58.0375Z"/><path d="M32.0183,26.8286H51.155a.9994.9994,0,0,0,1-1,21.1846,21.1846,0,0,0-.5639-4.7666h2.81a4.2279,4.2279,0,0,0,4.2227-4.2227V13.0734a5.6377,5.6377,0,1,0-3.5,0v3.7659a.7236.7236,0,0,1-.7227.7227H50.5466c-.0295,0-.0571.0072-.0864.0086a21.18,21.18,0,0,0-3.8452-6.0262l-.001-.002A21.2821,21.2821,0,0,0,31.115,4.6508h-.0069a1,1,0,0,0-1,1V24.9184A1.9118,1.9118,0,0,0,32.0183,26.8286ZM56.8738,5.5805a2.1372,2.1372,0,1,1-2.1377,2.1367A2.14,2.14,0,0,1,56.8738,5.5805Z"/><path d="M25.91,10.52a.9994.9994,0,0,0-1-1h-.1377A22.3835,22.3835,0,0,0,8.7212,47.5378L25.91,28.815Z"/></g></svg>