<?xml version="1.0" standalone="no"?>
<!DOCTYPE svg PUBLIC "-//W3C//DTD SVG 20010904//EN"
 "http://www.w3.org/TR/2001/REC-SVG-20010904/DTD/svg10.dtd">
<svg version="1.0" xmlns="http://www.w3.org/2000/svg"
 width="64.000000pt" height="64.000000pt" viewBox="0 0 64.000000 64.000000"
 preserveAspectRatio="xMidYMid meet">

<g transform="translate(0.000000,64.000000) scale(0.100000,-0.100000)"
fill="#000000" stroke="none">
<path d="M67 533 c-4 -3 -7 -100 -7 -214 0 -179 2 -208 16 -213 9 -3 62 -6
119 -6 147 0 140 -13 131 229 -4 107 -10 199 -12 203 -6 10 -238 11 -247 1z
m243 -88 l0 -75 -29 0 c-21 0 -32 -6 -36 -21 -14 -42 -97 -41 -110 2 -4 13
-16 19 -36 19 l-29 0 0 75 0 75 120 0 120 0 0 -75z m0 -210 l0 -45 -120 0
-120 0 0 45 0 45 120 0 120 0 0 -45z"/>
<path d="M106 485 c-3 -9 -2 -23 2 -31 7 -13 10 -13 22 1 11 13 11 18 -2 31
-14 14 -16 14 -22 -1z"/>
<path d="M350 320 l0 -160 115 0 115 0 0 160 0 160 -115 0 -115 0 0 -160z
m220 0 l0 -150 -105 0 -105 0 0 150 0 150 105 0 105 0 0 -150z"/>
</g>
</svg>
