<?xml version="1.0" encoding="UTF-8" ?>
<svg version="1.1" width="64" height="64" xmlns="http://www.w3.org/2000/svg" shape-rendering="crispEdges">
<rect x="16" y="14" width="1" height="1" fill="#000000" />
<rect x="17" y="14" width="1" height="1" fill="#000000" />
<rect x="18" y="14" width="1" height="1" fill="#000000" />
<rect x="19" y="14" width="1" height="1" fill="#000000" />
<rect x="20" y="14" width="1" height="1" fill="#000000" />
<rect x="21" y="14" width="1" height="1" fill="#000000" />
<rect x="22" y="14" width="1" height="1" fill="#000000" />
<rect x="23" y="14" width="1" height="1" fill="#000000" />
<rect x="24" y="14" width="1" height="1" fill="#000000" />
<rect x="25" y="14" width="1" height="1" fill="#000000" />
<rect x="26" y="14" width="1" height="1" fill="#000000" />
<rect x="27" y="14" width="1" height="1" fill="#000000" />
<rect x="28" y="14" width="1" height="1" fill="#000000" />
<rect x="29" y="14" width="1" height="1" fill="#000000" />
<rect x="30" y="14" width="1" height="1" fill="#000000" />
<rect x="31" y="14" width="1" height="1" fill="#000000" />
<rect x="32" y="14" width="1" height="1" fill="#000000" />
<rect x="33" y="14" width="1" height="1" fill="#000000" />
<rect x="34" y="14" width="1" height="1" fill="#000000" />
<rect x="35" y="14" width="1" height="1" fill="#000000" />
<rect x="36" y="14" width="1" height="1" fill="#000000" />
<rect x="37" y="14" width="1" height="1" fill="#000000" />
<rect x="38" y="14" width="1" height="1" fill="#000000" />
<rect x="39" y="14" width="1" height="1" fill="#000000" />
<rect x="40" y="14" width="1" height="1" fill="#000000" />
<rect x="41" y="14" width="1" height="1" fill="#000000" />
<rect x="42" y="14" width="1" height="1" fill="#000000" />
<rect x="43" y="14" width="1" height="1" fill="#000000" />
<rect x="16" y="15" width="1" height="1" fill="#000000" />
<rect x="17" y="15" width="1" height="1" fill="#000000" />
<rect x="18" y="15" width="1" height="1" fill="#000000" />
<rect x="19" y="15" width="1" height="1" fill="#000000" />
<rect x="20" y="15" width="1" height="1" fill="#000000" />
<rect x="21" y="15" width="1" height="1" fill="#000000" />
<rect x="22" y="15" width="1" height="1" fill="#000000" />
<rect x="23" y="15" width="1" height="1" fill="#000000" />
<rect x="24" y="15" width="1" height="1" fill="#000000" />
<rect x="25" y="15" width="1" height="1" fill="#000000" />
<rect x="26" y="15" width="1" height="1" fill="#000000" />
<rect x="27" y="15" width="1" height="1" fill="#000000" />
<rect x="28" y="15" width="1" height="1" fill="#000000" />
<rect x="29" y="15" width="1" height="1" fill="#000000" />
<rect x="30" y="15" width="1" height="1" fill="#000000" />
<rect x="31" y="15" width="1" height="1" fill="#000000" />
<rect x="32" y="15" width="1" height="1" fill="#000000" />
<rect x="33" y="15" width="1" height="1" fill="#000000" />
<rect x="34" y="15" width="1" height="1" fill="#000000" />
<rect x="35" y="15" width="1" height="1" fill="#000000" />
<rect x="36" y="15" width="1" height="1" fill="#000000" />
<rect x="37" y="15" width="1" height="1" fill="#000000" />
<rect x="38" y="15" width="1" height="1" fill="#000000" />
<rect x="39" y="15" width="1" height="1" fill="#000000" />
<rect x="40" y="15" width="1" height="1" fill="#000000" />
<rect x="41" y="15" width="1" height="1" fill="#000000" />
<rect x="42" y="15" width="1" height="1" fill="#000000" />
<rect x="43" y="15" width="1" height="1" fill="#000000" />
<rect x="16" y="16" width="1" height="1" fill="#000000" />
<rect x="17" y="16" width="1" height="1" fill="#000000" />
<rect x="23" y="16" width="1" height="1" fill="#000000" />
<rect x="24" y="16" width="1" height="1" fill="#000000" />
<rect x="33" y="16" width="1" height="1" fill="#000000" />
<rect x="34" y="16" width="1" height="1" fill="#000000" />
<rect x="35" y="16" width="1" height="1" fill="#000000" />
<rect x="36" y="16" width="1" height="1" fill="#000000" />
<rect x="39" y="16" width="1" height="1" fill="#000000" />
<rect x="40" y="16" width="1" height="1" fill="#000000" />
<rect x="41" y="16" width="1" height="1" fill="#000000" opacity="0.576471" />
<rect x="42" y="16" width="1" height="1" fill="#000000" opacity="0.576471" />
<rect x="43" y="16" width="1" height="1" fill="#000000" opacity="0.576471" />
<rect x="44" y="16" width="1" height="1" fill="#000000" />
<rect x="45" y="16" width="1" height="1" fill="#000000" />
<rect x="16" y="17" width="1" height="1" fill="#000000" />
<rect x="17" y="17" width="1" height="1" fill="#000000" />
<rect x="23" y="17" width="1" height="1" fill="#000000" />
<rect x="24" y="17" width="1" height="1" fill="#000000" />
<rect x="33" y="17" width="1" height="1" fill="#000000" />
<rect x="34" y="17" width="1" height="1" fill="#000000" />
<rect x="35" y="17" width="1" height="1" fill="#000000" />
<rect x="36" y="17" width="1" height="1" fill="#000000" />
<rect x="39" y="17" width="1" height="1" fill="#000000" />
<rect x="40" y="17" width="1" height="1" fill="#000000" />
<rect x="43" y="17" width="1" height="1" fill="#000000" opacity="0.576471" />
<rect x="44" y="17" width="1" height="1" fill="#000000" />
<rect x="45" y="17" width="1" height="1" fill="#000000" />
<rect x="16" y="18" width="1" height="1" fill="#000000" />
<rect x="17" y="18" width="1" height="1" fill="#000000" />
<rect x="23" y="18" width="1" height="1" fill="#000000" />
<rect x="24" y="18" width="1" height="1" fill="#000000" />
<rect x="33" y="18" width="1" height="1" fill="#000000" />
<rect x="34" y="18" width="1" height="1" fill="#000000" />
<rect x="35" y="18" width="1" height="1" fill="#000000" />
<rect x="36" y="18" width="1" height="1" fill="#000000" />
<rect x="39" y="18" width="1" height="1" fill="#000000" />
<rect x="40" y="18" width="1" height="1" fill="#000000" />
<rect x="43" y="18" width="1" height="1" fill="#000000" opacity="0.576471" />
<rect x="44" y="18" width="1" height="1" fill="#000000" />
<rect x="45" y="18" width="1" height="1" fill="#000000" />
<rect x="46" y="18" width="1" height="1" fill="#000000" />
<rect x="47" y="18" width="1" height="1" fill="#000000" />
<rect x="16" y="19" width="1" height="1" fill="#000000" />
<rect x="17" y="19" width="1" height="1" fill="#000000" />
<rect x="23" y="19" width="1" height="1" fill="#000000" />
<rect x="24" y="19" width="1" height="1" fill="#000000" />
<rect x="33" y="19" width="1" height="1" fill="#000000" />
<rect x="34" y="19" width="1" height="1" fill="#000000" />
<rect x="35" y="19" width="1" height="1" fill="#000000" />
<rect x="36" y="19" width="1" height="1" fill="#000000" />
<rect x="39" y="19" width="1" height="1" fill="#000000" />
<rect x="40" y="19" width="1" height="1" fill="#000000" />
<rect x="43" y="19" width="1" height="1" fill="#000000" opacity="0.576471" />
<rect x="44" y="19" width="1" height="1" fill="#000000" />
<rect x="45" y="19" width="1" height="1" fill="#000000" />
<rect x="46" y="19" width="1" height="1" fill="#000000" />
<rect x="47" y="19" width="1" height="1" fill="#000000" />
<rect x="16" y="20" width="1" height="1" fill="#000000" />
<rect x="17" y="20" width="1" height="1" fill="#000000" />
<rect x="23" y="20" width="1" height="1" fill="#000000" />
<rect x="24" y="20" width="1" height="1" fill="#000000" />
<rect x="33" y="20" width="1" height="1" fill="#000000" />
<rect x="34" y="20" width="1" height="1" fill="#000000" />
<rect x="35" y="20" width="1" height="1" fill="#000000" />
<rect x="36" y="20" width="1" height="1" fill="#000000" />
<rect x="39" y="20" width="1" height="1" fill="#000000" />
<rect x="40" y="20" width="1" height="1" fill="#000000" />
<rect x="43" y="20" width="1" height="1" fill="#000000" opacity="0.576471" />
<rect x="44" y="20" width="1" height="1" fill="#000000" opacity="0.576471" />
<rect x="45" y="20" width="1" height="1" fill="#000000" opacity="0.576471" />
<rect x="46" y="20" width="1" height="1" fill="#000000" opacity="0.576471" />
<rect x="47" y="20" width="1" height="1" fill="#000000" opacity="0.576471" />
<rect x="48" y="20" width="1" height="1" fill="#000000" />
<rect x="49" y="20" width="1" height="1" fill="#000000" />
<rect x="16" y="21" width="1" height="1" fill="#000000" />
<rect x="17" y="21" width="1" height="1" fill="#000000" />
<rect x="23" y="21" width="1" height="1" fill="#000000" />
<rect x="24" y="21" width="1" height="1" fill="#000000" />
<rect x="33" y="21" width="1" height="1" fill="#000000" />
<rect x="34" y="21" width="1" height="1" fill="#000000" />
<rect x="35" y="21" width="1" height="1" fill="#000000" />
<rect x="36" y="21" width="1" height="1" fill="#000000" />
<rect x="39" y="21" width="1" height="1" fill="#000000" />
<rect x="40" y="21" width="1" height="1" fill="#000000" />
<rect x="47" y="21" width="1" height="1" fill="#000000" opacity="0.576471" />
<rect x="48" y="21" width="1" height="1" fill="#000000" />
<rect x="49" y="21" width="1" height="1" fill="#000000" />
<rect x="16" y="22" width="1" height="1" fill="#000000" />
<rect x="17" y="22" width="1" height="1" fill="#000000" />
<rect x="23" y="22" width="1" height="1" fill="#000000" />
<rect x="24" y="22" width="1" height="1" fill="#000000" />
<rect x="33" y="22" width="1" height="1" fill="#000000" />
<rect x="34" y="22" width="1" height="1" fill="#000000" />
<rect x="35" y="22" width="1" height="1" fill="#000000" />
<rect x="36" y="22" width="1" height="1" fill="#000000" />
<rect x="39" y="22" width="1" height="1" fill="#000000" />
<rect x="40" y="22" width="1" height="1" fill="#000000" />
<rect x="47" y="22" width="1" height="1" fill="#000000" opacity="0.576471" />
<rect x="48" y="22" width="1" height="1" fill="#000000" />
<rect x="49" y="22" width="1" height="1" fill="#000000" />
<rect x="16" y="23" width="1" height="1" fill="#000000" />
<rect x="17" y="23" width="1" height="1" fill="#000000" />
<rect x="23" y="23" width="1" height="1" fill="#000000" />
<rect x="24" y="23" width="1" height="1" fill="#000000" />
<rect x="39" y="23" width="1" height="1" fill="#000000" />
<rect x="40" y="23" width="1" height="1" fill="#000000" />
<rect x="47" y="23" width="1" height="1" fill="#000000" opacity="0.576471" />
<rect x="48" y="23" width="1" height="1" fill="#000000" />
<rect x="49" y="23" width="1" height="1" fill="#000000" />
<rect x="16" y="24" width="1" height="1" fill="#000000" />
<rect x="17" y="24" width="1" height="1" fill="#000000" />
<rect x="23" y="24" width="1" height="1" fill="#000000" />
<rect x="24" y="24" width="1" height="1" fill="#000000" />
<rect x="39" y="24" width="1" height="1" fill="#000000" />
<rect x="40" y="24" width="1" height="1" fill="#000000" />
<rect x="47" y="24" width="1" height="1" fill="#000000" opacity="0.576471" />
<rect x="48" y="24" width="1" height="1" fill="#000000" />
<rect x="49" y="24" width="1" height="1" fill="#000000" />
<rect x="16" y="25" width="1" height="1" fill="#000000" />
<rect x="17" y="25" width="1" height="1" fill="#000000" />
<rect x="23" y="25" width="1" height="1" fill="#000000" />
<rect x="24" y="25" width="1" height="1" fill="#000000" />
<rect x="25" y="25" width="1" height="1" fill="#000000" />
<rect x="26" y="25" width="1" height="1" fill="#000000" />
<rect x="27" y="25" width="1" height="1" fill="#000000" />
<rect x="28" y="25" width="1" height="1" fill="#000000" />
<rect x="29" y="25" width="1" height="1" fill="#000000" />
<rect x="30" y="25" width="1" height="1" fill="#000000" />
<rect x="31" y="25" width="1" height="1" fill="#000000" />
<rect x="32" y="25" width="1" height="1" fill="#000000" />
<rect x="33" y="25" width="1" height="1" fill="#000000" />
<rect x="34" y="25" width="1" height="1" fill="#000000" />
<rect x="35" y="25" width="1" height="1" fill="#000000" />
<rect x="36" y="25" width="1" height="1" fill="#000000" />
<rect x="37" y="25" width="1" height="1" fill="#000000" />
<rect x="38" y="25" width="1" height="1" fill="#000000" />
<rect x="39" y="25" width="1" height="1" fill="#000000" />
<rect x="40" y="25" width="1" height="1" fill="#000000" />
<rect x="47" y="25" width="1" height="1" fill="#000000" opacity="0.576471" />
<rect x="48" y="25" width="1" height="1" fill="#000000" />
<rect x="49" y="25" width="1" height="1" fill="#000000" />
<rect x="16" y="26" width="1" height="1" fill="#000000" />
<rect x="17" y="26" width="1" height="1" fill="#000000" />
<rect x="23" y="26" width="1" height="1" fill="#000000" />
<rect x="24" y="26" width="1" height="1" fill="#000000" />
<rect x="25" y="26" width="1" height="1" fill="#000000" />
<rect x="26" y="26" width="1" height="1" fill="#000000" />
<rect x="27" y="26" width="1" height="1" fill="#000000" />
<rect x="28" y="26" width="1" height="1" fill="#000000" />
<rect x="29" y="26" width="1" height="1" fill="#000000" />
<rect x="30" y="26" width="1" height="1" fill="#000000" />
<rect x="31" y="26" width="1" height="1" fill="#000000" />
<rect x="32" y="26" width="1" height="1" fill="#000000" />
<rect x="33" y="26" width="1" height="1" fill="#000000" />
<rect x="34" y="26" width="1" height="1" fill="#000000" />
<rect x="35" y="26" width="1" height="1" fill="#000000" />
<rect x="36" y="26" width="1" height="1" fill="#000000" />
<rect x="37" y="26" width="1" height="1" fill="#000000" />
<rect x="38" y="26" width="1" height="1" fill="#000000" />
<rect x="39" y="26" width="1" height="1" fill="#000000" />
<rect x="40" y="26" width="1" height="1" fill="#000000" />
<rect x="47" y="26" width="1" height="1" fill="#000000" opacity="0.576471" />
<rect x="48" y="26" width="1" height="1" fill="#000000" />
<rect x="49" y="26" width="1" height="1" fill="#000000" />
<rect x="16" y="27" width="1" height="1" fill="#000000" />
<rect x="17" y="27" width="1" height="1" fill="#000000" />
<rect x="47" y="27" width="1" height="1" fill="#000000" opacity="0.576471" />
<rect x="48" y="27" width="1" height="1" fill="#000000" />
<rect x="49" y="27" width="1" height="1" fill="#000000" />
<rect x="16" y="28" width="1" height="1" fill="#000000" />
<rect x="17" y="28" width="1" height="1" fill="#000000" />
<rect x="47" y="28" width="1" height="1" fill="#000000" opacity="0.576471" />
<rect x="48" y="28" width="1" height="1" fill="#000000" />
<rect x="49" y="28" width="1" height="1" fill="#000000" />
<rect x="16" y="29" width="1" height="1" fill="#000000" />
<rect x="17" y="29" width="1" height="1" fill="#000000" />
<rect x="47" y="29" width="1" height="1" fill="#000000" opacity="0.576471" />
<rect x="48" y="29" width="1" height="1" fill="#000000" />
<rect x="49" y="29" width="1" height="1" fill="#000000" />
<rect x="16" y="30" width="1" height="1" fill="#000000" />
<rect x="17" y="30" width="1" height="1" fill="#000000" />
<rect x="47" y="30" width="1" height="1" fill="#000000" opacity="0.576471" />
<rect x="48" y="30" width="1" height="1" fill="#000000" />
<rect x="49" y="30" width="1" height="1" fill="#000000" />
<rect x="16" y="31" width="1" height="1" fill="#000000" />
<rect x="17" y="31" width="1" height="1" fill="#000000" />
<rect x="47" y="31" width="1" height="1" fill="#000000" opacity="0.576471" />
<rect x="48" y="31" width="1" height="1" fill="#000000" />
<rect x="49" y="31" width="1" height="1" fill="#000000" />
<rect x="16" y="32" width="1" height="1" fill="#000000" />
<rect x="17" y="32" width="1" height="1" fill="#000000" />
<rect x="47" y="32" width="1" height="1" fill="#000000" opacity="0.576471" />
<rect x="48" y="32" width="1" height="1" fill="#000000" />
<rect x="49" y="32" width="1" height="1" fill="#000000" />
<rect x="16" y="33" width="1" height="1" fill="#000000" />
<rect x="17" y="33" width="1" height="1" fill="#000000" />
<rect x="47" y="33" width="1" height="1" fill="#000000" opacity="0.576471" />
<rect x="48" y="33" width="1" height="1" fill="#000000" />
<rect x="49" y="33" width="1" height="1" fill="#000000" />
<rect x="16" y="34" width="1" height="1" fill="#000000" />
<rect x="17" y="34" width="1" height="1" fill="#000000" />
<rect x="22" y="34" width="1" height="1" fill="#000000" />
<rect x="23" y="34" width="1" height="1" fill="#000000" />
<rect x="24" y="34" width="1" height="1" fill="#000000" />
<rect x="25" y="34" width="1" height="1" fill="#000000" />
<rect x="26" y="34" width="1" height="1" fill="#000000" />
<rect x="27" y="34" width="1" height="1" fill="#000000" />
<rect x="28" y="34" width="1" height="1" fill="#000000" />
<rect x="29" y="34" width="1" height="1" fill="#000000" />
<rect x="30" y="34" width="1" height="1" fill="#000000" />
<rect x="31" y="34" width="1" height="1" fill="#000000" />
<rect x="32" y="34" width="1" height="1" fill="#000000" />
<rect x="33" y="34" width="1" height="1" fill="#000000" />
<rect x="34" y="34" width="1" height="1" fill="#000000" />
<rect x="35" y="34" width="1" height="1" fill="#000000" />
<rect x="36" y="34" width="1" height="1" fill="#000000" />
<rect x="37" y="34" width="1" height="1" fill="#000000" />
<rect x="38" y="34" width="1" height="1" fill="#000000" />
<rect x="39" y="34" width="1" height="1" fill="#000000" />
<rect x="40" y="34" width="1" height="1" fill="#000000" />
<rect x="41" y="34" width="1" height="1" fill="#000000" />
<rect x="42" y="34" width="1" height="1" fill="#000000" />
<rect x="47" y="34" width="1" height="1" fill="#000000" opacity="0.576471" />
<rect x="48" y="34" width="1" height="1" fill="#000000" />
<rect x="49" y="34" width="1" height="1" fill="#000000" />
<rect x="16" y="35" width="1" height="1" fill="#000000" />
<rect x="17" y="35" width="1" height="1" fill="#000000" />
<rect x="22" y="35" width="1" height="1" fill="#000000" />
<rect x="23" y="35" width="1" height="1" fill="#000000" />
<rect x="24" y="35" width="1" height="1" fill="#000000" />
<rect x="25" y="35" width="1" height="1" fill="#000000" />
<rect x="26" y="35" width="1" height="1" fill="#000000" />
<rect x="27" y="35" width="1" height="1" fill="#000000" />
<rect x="28" y="35" width="1" height="1" fill="#000000" />
<rect x="29" y="35" width="1" height="1" fill="#000000" />
<rect x="30" y="35" width="1" height="1" fill="#000000" />
<rect x="31" y="35" width="1" height="1" fill="#000000" />
<rect x="32" y="35" width="1" height="1" fill="#000000" />
<rect x="33" y="35" width="1" height="1" fill="#000000" />
<rect x="34" y="35" width="1" height="1" fill="#000000" />
<rect x="35" y="35" width="1" height="1" fill="#000000" />
<rect x="36" y="35" width="1" height="1" fill="#000000" />
<rect x="37" y="35" width="1" height="1" fill="#000000" />
<rect x="38" y="35" width="1" height="1" fill="#000000" />
<rect x="39" y="35" width="1" height="1" fill="#000000" />
<rect x="40" y="35" width="1" height="1" fill="#000000" />
<rect x="41" y="35" width="1" height="1" fill="#000000" />
<rect x="42" y="35" width="1" height="1" fill="#000000" />
<rect x="47" y="35" width="1" height="1" fill="#000000" opacity="0.576471" />
<rect x="48" y="35" width="1" height="1" fill="#000000" />
<rect x="49" y="35" width="1" height="1" fill="#000000" />
<rect x="16" y="36" width="1" height="1" fill="#000000" />
<rect x="17" y="36" width="1" height="1" fill="#000000" />
<rect x="22" y="36" width="1" height="1" fill="#000000" />
<rect x="23" y="36" width="1" height="1" fill="#000000" />
<rect x="41" y="36" width="1" height="1" fill="#000000" />
<rect x="42" y="36" width="1" height="1" fill="#000000" />
<rect x="47" y="36" width="1" height="1" fill="#000000" opacity="0.576471" />
<rect x="48" y="36" width="1" height="1" fill="#000000" />
<rect x="49" y="36" width="1" height="1" fill="#000000" />
<rect x="16" y="37" width="1" height="1" fill="#000000" />
<rect x="17" y="37" width="1" height="1" fill="#000000" />
<rect x="22" y="37" width="1" height="1" fill="#000000" />
<rect x="23" y="37" width="1" height="1" fill="#000000" />
<rect x="41" y="37" width="1" height="1" fill="#000000" />
<rect x="42" y="37" width="1" height="1" fill="#000000" />
<rect x="47" y="37" width="1" height="1" fill="#000000" opacity="0.576471" />
<rect x="48" y="37" width="1" height="1" fill="#000000" />
<rect x="49" y="37" width="1" height="1" fill="#000000" />
<rect x="16" y="38" width="1" height="1" fill="#000000" />
<rect x="17" y="38" width="1" height="1" fill="#000000" />
<rect x="22" y="38" width="1" height="1" fill="#000000" />
<rect x="23" y="38" width="1" height="1" fill="#000000" />
<rect x="41" y="38" width="1" height="1" fill="#000000" />
<rect x="42" y="38" width="1" height="1" fill="#000000" />
<rect x="47" y="38" width="1" height="1" fill="#000000" opacity="0.576471" />
<rect x="48" y="38" width="1" height="1" fill="#000000" />
<rect x="49" y="38" width="1" height="1" fill="#000000" />
<rect x="16" y="39" width="1" height="1" fill="#000000" />
<rect x="17" y="39" width="1" height="1" fill="#000000" />
<rect x="22" y="39" width="1" height="1" fill="#000000" />
<rect x="23" y="39" width="1" height="1" fill="#000000" />
<rect x="41" y="39" width="1" height="1" fill="#000000" />
<rect x="42" y="39" width="1" height="1" fill="#000000" />
<rect x="47" y="39" width="1" height="1" fill="#000000" opacity="0.576471" />
<rect x="48" y="39" width="1" height="1" fill="#000000" />
<rect x="49" y="39" width="1" height="1" fill="#000000" />
<rect x="16" y="40" width="1" height="1" fill="#000000" />
<rect x="17" y="40" width="1" height="1" fill="#000000" />
<rect x="22" y="40" width="1" height="1" fill="#000000" />
<rect x="23" y="40" width="1" height="1" fill="#000000" />
<rect x="41" y="40" width="1" height="1" fill="#000000" />
<rect x="42" y="40" width="1" height="1" fill="#000000" />
<rect x="47" y="40" width="1" height="1" fill="#000000" opacity="0.576471" />
<rect x="48" y="40" width="1" height="1" fill="#000000" />
<rect x="49" y="40" width="1" height="1" fill="#000000" />
<rect x="16" y="41" width="1" height="1" fill="#000000" />
<rect x="17" y="41" width="1" height="1" fill="#000000" />
<rect x="22" y="41" width="1" height="1" fill="#000000" />
<rect x="23" y="41" width="1" height="1" fill="#000000" />
<rect x="41" y="41" width="1" height="1" fill="#000000" />
<rect x="42" y="41" width="1" height="1" fill="#000000" />
<rect x="47" y="41" width="1" height="1" fill="#000000" opacity="0.576471" />
<rect x="48" y="41" width="1" height="1" fill="#000000" />
<rect x="49" y="41" width="1" height="1" fill="#000000" />
<rect x="16" y="42" width="1" height="1" fill="#000000" />
<rect x="17" y="42" width="1" height="1" fill="#000000" />
<rect x="22" y="42" width="1" height="1" fill="#000000" />
<rect x="23" y="42" width="1" height="1" fill="#000000" />
<rect x="41" y="42" width="1" height="1" fill="#000000" />
<rect x="42" y="42" width="1" height="1" fill="#000000" />
<rect x="47" y="42" width="1" height="1" fill="#000000" opacity="0.576471" />
<rect x="48" y="42" width="1" height="1" fill="#000000" />
<rect x="49" y="42" width="1" height="1" fill="#000000" />
<rect x="16" y="43" width="1" height="1" fill="#000000" />
<rect x="17" y="43" width="1" height="1" fill="#000000" />
<rect x="22" y="43" width="1" height="1" fill="#000000" />
<rect x="23" y="43" width="1" height="1" fill="#000000" />
<rect x="41" y="43" width="1" height="1" fill="#000000" />
<rect x="42" y="43" width="1" height="1" fill="#000000" />
<rect x="47" y="43" width="1" height="1" fill="#000000" opacity="0.576471" />
<rect x="48" y="43" width="1" height="1" fill="#000000" />
<rect x="49" y="43" width="1" height="1" fill="#000000" />
<rect x="16" y="44" width="1" height="1" fill="#000000" />
<rect x="17" y="44" width="1" height="1" fill="#000000" />
<rect x="22" y="44" width="1" height="1" fill="#000000" />
<rect x="23" y="44" width="1" height="1" fill="#000000" />
<rect x="41" y="44" width="1" height="1" fill="#000000" />
<rect x="42" y="44" width="1" height="1" fill="#000000" />
<rect x="47" y="44" width="1" height="1" fill="#000000" opacity="0.576471" />
<rect x="48" y="44" width="1" height="1" fill="#000000" />
<rect x="49" y="44" width="1" height="1" fill="#000000" />
<rect x="16" y="45" width="1" height="1" fill="#000000" />
<rect x="17" y="45" width="1" height="1" fill="#000000" />
<rect x="22" y="45" width="1" height="1" fill="#000000" />
<rect x="23" y="45" width="1" height="1" fill="#000000" />
<rect x="41" y="45" width="1" height="1" fill="#000000" />
<rect x="42" y="45" width="1" height="1" fill="#000000" />
<rect x="47" y="45" width="1" height="1" fill="#000000" opacity="0.576471" />
<rect x="48" y="45" width="1" height="1" fill="#000000" />
<rect x="49" y="45" width="1" height="1" fill="#000000" />
<rect x="16" y="46" width="1" height="1" fill="#000000" />
<rect x="17" y="46" width="1" height="1" fill="#000000" />
<rect x="22" y="46" width="1" height="1" fill="#000000" />
<rect x="23" y="46" width="1" height="1" fill="#000000" />
<rect x="41" y="46" width="1" height="1" fill="#000000" />
<rect x="42" y="46" width="1" height="1" fill="#000000" />
<rect x="47" y="46" width="1" height="1" fill="#000000" opacity="0.576471" />
<rect x="48" y="46" width="1" height="1" fill="#000000" />
<rect x="49" y="46" width="1" height="1" fill="#000000" />
<rect x="16" y="47" width="1" height="1" fill="#000000" />
<rect x="17" y="47" width="1" height="1" fill="#000000" />
<rect x="22" y="47" width="1" height="1" fill="#000000" />
<rect x="23" y="47" width="1" height="1" fill="#000000" />
<rect x="41" y="47" width="1" height="1" fill="#000000" />
<rect x="42" y="47" width="1" height="1" fill="#000000" />
<rect x="47" y="47" width="1" height="1" fill="#000000" opacity="0.576471" />
<rect x="48" y="47" width="1" height="1" fill="#000000" />
<rect x="49" y="47" width="1" height="1" fill="#000000" />
<rect x="16" y="48" width="1" height="1" fill="#000000" />
<rect x="17" y="48" width="1" height="1" fill="#000000" />
<rect x="22" y="48" width="1" height="1" fill="#000000" />
<rect x="23" y="48" width="1" height="1" fill="#000000" />
<rect x="41" y="48" width="1" height="1" fill="#000000" />
<rect x="42" y="48" width="1" height="1" fill="#000000" />
<rect x="47" y="48" width="1" height="1" fill="#000000" opacity="0.576471" />
<rect x="48" y="48" width="1" height="1" fill="#000000" />
<rect x="49" y="48" width="1" height="1" fill="#000000" />
<rect x="16" y="49" width="1" height="1" fill="#000000" />
<rect x="17" y="49" width="1" height="1" fill="#000000" />
<rect x="22" y="49" width="1" height="1" fill="#000000" />
<rect x="23" y="49" width="1" height="1" fill="#000000" />
<rect x="41" y="49" width="1" height="1" fill="#000000" />
<rect x="42" y="49" width="1" height="1" fill="#000000" />
<rect x="47" y="49" width="1" height="1" fill="#000000" opacity="0.576471" />
<rect x="48" y="49" width="1" height="1" fill="#000000" />
<rect x="49" y="49" width="1" height="1" fill="#000000" />
<rect x="16" y="50" width="1" height="1" fill="#000000" />
<rect x="17" y="50" width="1" height="1" fill="#000000" />
<rect x="22" y="50" width="1" height="1" fill="#000000" />
<rect x="23" y="50" width="1" height="1" fill="#000000" />
<rect x="41" y="50" width="1" height="1" fill="#000000" />
<rect x="42" y="50" width="1" height="1" fill="#000000" />
<rect x="47" y="50" width="1" height="1" fill="#000000" opacity="0.576471" />
<rect x="48" y="50" width="1" height="1" fill="#000000" />
<rect x="49" y="50" width="1" height="1" fill="#000000" />
<rect x="16" y="51" width="1" height="1" fill="#000000" />
<rect x="17" y="51" width="1" height="1" fill="#000000" />
<rect x="22" y="51" width="1" height="1" fill="#000000" />
<rect x="23" y="51" width="1" height="1" fill="#000000" />
<rect x="41" y="51" width="1" height="1" fill="#000000" />
<rect x="42" y="51" width="1" height="1" fill="#000000" />
<rect x="47" y="51" width="1" height="1" fill="#000000" opacity="0.576471" />
<rect x="48" y="51" width="1" height="1" fill="#000000" />
<rect x="49" y="51" width="1" height="1" fill="#000000" />
<rect x="16" y="52" width="1" height="1" fill="#000000" />
<rect x="17" y="52" width="1" height="1" fill="#000000" />
<rect x="18" y="52" width="1" height="1" fill="#000000" />
<rect x="19" y="52" width="1" height="1" fill="#000000" />
<rect x="20" y="52" width="1" height="1" fill="#000000" />
<rect x="21" y="52" width="1" height="1" fill="#000000" />
<rect x="22" y="52" width="1" height="1" fill="#000000" />
<rect x="23" y="52" width="1" height="1" fill="#000000" />
<rect x="24" y="52" width="1" height="1" fill="#000000" />
<rect x="25" y="52" width="1" height="1" fill="#000000" />
<rect x="26" y="52" width="1" height="1" fill="#000000" />
<rect x="27" y="52" width="1" height="1" fill="#000000" />
<rect x="28" y="52" width="1" height="1" fill="#000000" />
<rect x="29" y="52" width="1" height="1" fill="#000000" />
<rect x="30" y="52" width="1" height="1" fill="#000000" />
<rect x="31" y="52" width="1" height="1" fill="#000000" />
<rect x="32" y="52" width="1" height="1" fill="#000000" />
<rect x="33" y="52" width="1" height="1" fill="#000000" />
<rect x="34" y="52" width="1" height="1" fill="#000000" />
<rect x="35" y="52" width="1" height="1" fill="#000000" />
<rect x="36" y="52" width="1" height="1" fill="#000000" />
<rect x="37" y="52" width="1" height="1" fill="#000000" />
<rect x="38" y="52" width="1" height="1" fill="#000000" />
<rect x="39" y="52" width="1" height="1" fill="#000000" />
<rect x="40" y="52" width="1" height="1" fill="#000000" />
<rect x="41" y="52" width="1" height="1" fill="#000000" />
<rect x="42" y="52" width="1" height="1" fill="#000000" />
<rect x="43" y="52" width="1" height="1" fill="#000000" />
<rect x="44" y="52" width="1" height="1" fill="#000000" />
<rect x="45" y="52" width="1" height="1" fill="#000000" />
<rect x="46" y="52" width="1" height="1" fill="#000000" />
<rect x="47" y="52" width="1" height="1" fill="#000000" />
<rect x="48" y="52" width="1" height="1" fill="#000000" />
<rect x="49" y="52" width="1" height="1" fill="#000000" />
<rect x="16" y="53" width="1" height="1" fill="#000000" />
<rect x="17" y="53" width="1" height="1" fill="#000000" />
<rect x="18" y="53" width="1" height="1" fill="#000000" />
<rect x="19" y="53" width="1" height="1" fill="#000000" />
<rect x="20" y="53" width="1" height="1" fill="#000000" />
<rect x="21" y="53" width="1" height="1" fill="#000000" />
<rect x="22" y="53" width="1" height="1" fill="#000000" />
<rect x="23" y="53" width="1" height="1" fill="#000000" />
<rect x="24" y="53" width="1" height="1" fill="#000000" />
<rect x="25" y="53" width="1" height="1" fill="#000000" />
<rect x="26" y="53" width="1" height="1" fill="#000000" />
<rect x="27" y="53" width="1" height="1" fill="#000000" />
<rect x="28" y="53" width="1" height="1" fill="#000000" />
<rect x="29" y="53" width="1" height="1" fill="#000000" />
<rect x="30" y="53" width="1" height="1" fill="#000000" />
<rect x="31" y="53" width="1" height="1" fill="#000000" />
<rect x="32" y="53" width="1" height="1" fill="#000000" />
<rect x="33" y="53" width="1" height="1" fill="#000000" />
<rect x="34" y="53" width="1" height="1" fill="#000000" />
<rect x="35" y="53" width="1" height="1" fill="#000000" />
<rect x="36" y="53" width="1" height="1" fill="#000000" />
<rect x="37" y="53" width="1" height="1" fill="#000000" />
<rect x="38" y="53" width="1" height="1" fill="#000000" />
<rect x="39" y="53" width="1" height="1" fill="#000000" />
<rect x="40" y="53" width="1" height="1" fill="#000000" />
<rect x="41" y="53" width="1" height="1" fill="#000000" />
<rect x="42" y="53" width="1" height="1" fill="#000000" />
<rect x="43" y="53" width="1" height="1" fill="#000000" />
<rect x="44" y="53" width="1" height="1" fill="#000000" />
<rect x="45" y="53" width="1" height="1" fill="#000000" />
<rect x="46" y="53" width="1" height="1" fill="#000000" />
<rect x="47" y="53" width="1" height="1" fill="#000000" />
<rect x="48" y="53" width="1" height="1" fill="#000000" />
<rect x="49" y="53" width="1" height="1" fill="#000000" />
</svg>